<?xml version="1.0" encoding="UTF-8"?>
<svg id="logo-negative" xmlns="http://www.w3.org/2000/svg" version="1.1" viewBox="0 0 162.8 135">
  <!-- Generator: Adobe Illustrator 29.8.2, SVG Export Plug-In . SVG Version: 2.1.1 Build 3)  -->
  <defs>
    <style>
      .st0 {
        fill: #fafafa;
      }
    </style>
  </defs>
  <path class="st0" d="M95.3,0c1.8,0,2.7,2.2,1.4,3.5-11.6,10.7-27.1,17.3-44.1,17.3S20,14.2,8.4,3.5C7.1,2.2,8,0,9.8,0h85.5Z"/>
  <path class="st0" d="M162.8,2v113.3c0,1.2-1.1,2.2-2.4,2-37.3-7.6-65.3-40.5-65.3-80s3-25.3,8.4-36.2C103.8.4,104.6,0,105.3,0h55.4c1.1,0,2,.9,2,2Z"/>
  <path class="st0" d="M150.8,135H21.5c-1.5,0-2.5-1.7-1.7-3,13.2-22.9,38-38.3,66.4-38.3s53.1,15.4,66.4,38.3c.8,1.3-.2,3-1.7,3h0Z"/>
  <path class="st0" d="M42.9,71.7c0,26.6-14,49.9-35,62.9-.3.2-.7.3-1.1.3H2c-1.1,0-2-.9-2-2V7.7c0-1.5,1.6-2.5,2.9-1.8,23.8,12.3,40,37.2,40,65.8Z"/>
</svg>